<?xml version="1.0" encoding="UTF-8"?>
<svg xmlns="http://www.w3.org/2000/svg" xmlns:xlink="http://www.w3.org/1999/xlink" width="128px" height="128px" viewBox="0 0 128 128" version="1.1">
<g id="surface1">
<path style=" stroke:none;fill-rule:nonzero;fill:rgb(0%,0%,0%);fill-opacity:1;" d="M 64 26.667969 C 43.382812 26.667969 26.667969 43.382812 26.667969 64 C 26.667969 84.617188 43.382812 101.332031 64 101.332031 C 84.617188 101.332031 101.332031 84.617188 101.332031 64 C 101.332031 43.382812 84.617188 26.667969 64 26.667969 Z M 64 32 C 81.671875 32 96 46.328125 96 64 C 96 81.671875 81.671875 96 64 96 C 46.328125 96 32 81.671875 32 64 C 32 46.328125 46.328125 32 64 32 Z M 64 37.332031 L 64 64 L 90.667969 64 C 90.667969 49.273438 78.726562 37.332031 64 37.332031 Z M 42.667969 58.667969 C 39.722656 58.667969 37.332031 61.054688 37.332031 64 C 37.332031 66.945312 39.722656 69.332031 42.667969 69.332031 C 45.613281 69.332031 48 66.945312 48 64 C 48 61.054688 45.613281 58.667969 42.667969 58.667969 Z M 64 80 C 61.054688 80 58.667969 82.386719 58.667969 85.332031 C 58.667969 88.277344 61.054688 90.667969 64 90.667969 C 66.945312 90.667969 69.332031 88.277344 69.332031 85.332031 C 69.332031 82.386719 66.945312 80 64 80 Z M 64 80 "/>
</g>
</svg>
